<?xml version="1.0" encoding="utf-8"?>
<!-- Generator: Adobe Illustrator 16.0.0, SVG Export Plug-In . SVG Version: 6.00 Build 0)  -->
<!DOCTYPE svg PUBLIC "-//W3C//DTD SVG 1.1//EN" "http://www.w3.org/Graphics/SVG/1.1/DTD/svg11.dtd">
<svg version="1.1" id="Layer_1" xmlns="http://www.w3.org/2000/svg" xmlns:xlink="http://www.w3.org/1999/xlink" x="0px" y="0px"
	 width="612px" height="792px" viewBox="0 0 612 792" enable-background="new 0 0 612 792" xml:space="preserve">
<g opacity="0.14">
	<path fill-rule="evenodd" clip-rule="evenodd" fill="#F15C27" d="M349.83,10.773l16.787,0.111
		c113.135,0.194,209.018,60.473,208.273,191.61c-0.281,52-26.635,128.312-96.891,154.783
		c107.582,19.549,134.135,123.688,133.721,195.152c-0.809,131.691-97.303,229.156-228.959,227.855l-101.369-0.609
		c145.303-27.191,192.658-133.49,193.236-233.779c0.496-86.863-20.074-155.891-138.232-205.316
		c84.566-41.977,98.892-104.609,99.271-165.166C435.998,116.021,423.094,60.615,349.83,10.773z"/>
	<path fill-rule="evenodd" clip-rule="evenodd" fill="#F15C27" d="M1.805,150.217l71.463,0.443c36.83,0,83.606,21.154,83.293,69.998
		c-0.215,39.708-34.385,67.229-68.141,66.871l-87.357-0.526L1.805,150.217z"/>
	<path fill-rule="evenodd" clip-rule="evenodd" fill="#F15C27" d="M0.119,447.322l87.392,0.498
		c49.206,0.139,101.897,21.32,101.534,81.572c-0.23,42.586-35.922,83.232-81.855,82.789l-108.011-0.607L0.119,447.322z"/>
</g>
</svg>
